<?xml version="1.0" encoding="utf-8"?>
<!-- Generator: Adobe Illustrator 23.0.2, SVG Export Plug-In . SVG Version: 6.00 Build 0)  -->
<svg version="1.1" id="Capa_1" xmlns="http://www.w3.org/2000/svg" xmlns:xlink="http://www.w3.org/1999/xlink" x="0px" y="0px"
	 viewBox="0 0 73.3 23.5" style="enable-background:new 0 0 73.3 23.5;" xml:space="preserve">
<style type="text/css">
	.st0{fill:#2A395F;}
</style>
<g id="Capa_1_copia">
</g>
<path class="st0" d="M28.1,0H13.3c-1.7,0-3,1.4-3,3v8.3c0,1.7,1.4,3,3,3h14.8c1.7,0,3-1.4,3-3V3C31.2,1.4,29.8,0,28.1,0z M28.4,10.3
	c0,1.2-1,2.2-2.2,2.2H15.3c-1.2,0-2.2-1-2.2-2.2V4.1c0-1.2,1-2.2,2.2-2.2h10.9c1.2,0,2.2,1,2.2,2.2C28.4,4.1,28.4,10.3,28.4,10.3z"
	/>
<path class="st0" d="M17.8,7.9H3c-1.7,0-3,1.4-3,3v8.3c0,1.7,1.4,3,3,3h14.8c1.7,0,3-1.4,3-3V11C20.9,9.3,19.5,7.9,17.8,7.9z
	 M18.1,18.2c0,1.2-1,2.2-2.2,2.2H5c-1.2,0-2.2-1-2.2-2.2v-6.1c0-1.2,1-2.2,2.2-2.2h10.9c1.2,0,2.2,1,2.2,2.2V18.2z"/>
<g>
	<path class="st0" d="M34.5,4.2h3.7v1.1h-1.2v6.5h-1.2V5.3h-1.2V4.2z"/>
	<path class="st0" d="M40.5,10.4l0.9-6.2h1.1l-1.2,7.6h-1.8l-1.2-7.6h1.2L40.5,10.4z"/>
	<path class="st0" d="M46.3,4.1c1.2,0,1.8,0.7,1.8,1.9v0.2H47V6c0-0.5-0.2-0.7-0.6-0.7S45.8,5.4,45.8,6c0,1.6,2.3,1.9,2.3,4
		c0,1.2-0.6,1.9-1.8,1.9c-1.2,0-1.8-0.7-1.8-1.9V9.5h1.1v0.5c0,0.5,0.2,0.7,0.6,0.7c0.4,0,0.6-0.2,0.6-0.7c0-1.6-2.3-1.9-2.3-4
		C44.6,4.8,45.2,4.1,46.3,4.1z"/>
	<path class="st0" d="M50,7.4h1.6v1.1H50v2.2H52v1.1h-3.3V4.2H52v1.1H50V7.4z"/>
	<path class="st0" d="M55.3,11.8c-0.1-0.2-0.1-0.3-0.1-0.9V9.7c0-0.7-0.2-1-0.8-1H54v3.1h-1.2V4.2h1.8c1.2,0,1.8,0.6,1.8,1.7v0.6
		c0,0.8-0.3,1.3-0.8,1.5c0.6,0.2,0.8,0.8,0.8,1.6v1.2c0,0.4,0,0.6,0.1,0.9H55.3z M54,5.3v2.3h0.5c0.4,0,0.7-0.2,0.7-0.8V6.1
		c0-0.5-0.2-0.8-0.6-0.8H54z"/>
	<path class="st0" d="M58.9,10.4l0.9-6.2h1.1l-1.2,7.6H58l-1.2-7.6H58L58.9,10.4z"/>
	<path class="st0" d="M61.5,4.2h1.2v7.6h-1.2V4.2z"/>
	<path class="st0" d="M67,9v1c0,1.2-0.6,1.9-1.8,1.9s-1.8-0.7-1.8-1.9V6c0-1.2,0.6-1.9,1.8-1.9S67,4.8,67,6v0.7h-1.1V6
		c0-0.5-0.2-0.7-0.6-0.7c-0.4,0-0.6,0.2-0.6,0.7v4.1c0,0.5,0.2,0.7,0.6,0.7c0.4,0,0.6-0.2,0.6-0.7V9H67z"/>
	<path class="st0" d="M67.7,4.2h1.2v7.6h-1.2V4.2z"/>
	<path class="st0" d="M69.7,6c0-1.2,0.6-1.9,1.8-1.9c1.2,0,1.8,0.7,1.8,1.9V10c0,1.2-0.6,1.9-1.8,1.9c-1.2,0-1.8-0.7-1.8-1.9V6z
		 M70.9,10.1c0,0.5,0.2,0.7,0.6,0.7c0.4,0,0.6-0.2,0.6-0.7V6c0-0.5-0.2-0.7-0.6-0.7c-0.4,0-0.6,0.2-0.6,0.7V10.1z"/>
</g>
<g>
	<g>
		<path class="st0" d="M28.2,17.7v1c0,1.2-0.6,1.9-1.8,1.9h-0.6v2.8h-1.2v-7.6h1.8C27.6,15.8,28.2,16.5,28.2,17.7z M25.9,16.9v2.6
			h0.6c0.4,0,0.6-0.2,0.6-0.7v-1.1c0-0.5-0.2-0.7-0.6-0.7H25.9z"/>
		<path class="st0" d="M31.3,23.4c-0.1-0.2-0.1-0.3-0.1-0.9v-1.2c0-0.7-0.2-1-0.8-1H30v3.1h-1.2v-7.6h1.8c1.2,0,1.8,0.6,1.8,1.7v0.6
			c0,0.8-0.3,1.3-0.8,1.5c0.6,0.2,0.8,0.8,0.8,1.6v1.2c0,0.4,0,0.6,0.1,0.9H31.3z M30,16.9v2.3h0.5c0.4,0,0.7-0.2,0.7-0.8v-0.7
			c0-0.5-0.2-0.8-0.6-0.8H30z"/>
		<path class="st0" d="M33,17.6c0-1.2,0.6-1.9,1.8-1.9c1.2,0,1.8,0.7,1.8,1.9v3.9c0,1.2-0.6,1.9-1.8,1.9c-1.2,0-1.8-0.7-1.8-1.9
			V17.6z M34.2,21.7c0,0.5,0.2,0.7,0.6,0.7c0.4,0,0.6-0.2,0.6-0.7v-4.1c0-0.5-0.2-0.7-0.6-0.7c-0.4,0-0.6,0.2-0.6,0.7V21.7z"/>
		<path class="st0" d="M38.6,19.2h1.5v1.1h-1.5v3.1h-1.2v-7.6h3.2v1.1h-2V19.2z"/>
		<path class="st0" d="M42.3,19H44v1.1h-1.6v2.2h2.1v1.1h-3.3v-7.6h3.3v1.1h-2.1V19z"/>
		<path class="st0" d="M46.7,15.7c1.2,0,1.8,0.7,1.8,1.9v0.2h-1.1v-0.3c0-0.5-0.2-0.7-0.6-0.7s-0.6,0.2-0.6,0.7c0,1.6,2.3,1.9,2.3,4
			c0,1.2-0.6,1.9-1.8,1.9c-1.2,0-1.8-0.7-1.8-1.9v-0.5h1.1v0.5c0,0.5,0.2,0.7,0.6,0.7c0.4,0,0.6-0.2,0.6-0.7c0-1.6-2.3-1.9-2.3-4
			C45,16.4,45.6,15.7,46.7,15.7z"/>
		<path class="st0" d="M49.2,15.8h1.2v7.6h-1.2V15.8z"/>
		<path class="st0" d="M51.2,17.6c0-1.2,0.6-1.9,1.8-1.9c1.2,0,1.8,0.7,1.8,1.9v3.9c0,1.2-0.6,1.9-1.8,1.9c-1.2,0-1.8-0.7-1.8-1.9
			V17.6z M52.3,21.7c0,0.5,0.2,0.7,0.6,0.7c0.4,0,0.6-0.2,0.6-0.7v-4.1c0-0.5-0.2-0.7-0.6-0.7c-0.4,0-0.6,0.2-0.6,0.7V21.7z"/>
		<path class="st0" d="M56.6,17.9v5.5h-1.1v-7.6H57l1.2,4.5v-4.5h1.1v7.6h-1.2L56.6,17.9z"/>
		<path class="st0" d="M64,23.4h-1.2L62.6,22h-1.5l-0.2,1.4h-1.1l1.2-7.6h1.7L64,23.4z M61.3,21h1.1l-0.6-3.8L61.3,21z"/>
		<path class="st0" d="M64.6,15.8h1.2v6.5h2v1.1h-3.2V15.8z"/>
	</g>
</g>
</svg>
